<?xml version="1.0" encoding="UTF-8"?>
<svg id="b" data-name="レイヤー 2" xmlns="http://www.w3.org/2000/svg" viewBox="0 0 1200 464.18">
  <g id="c" data-name="logo">
    <g>
      <path d="M701.28,336.97l-40.54-63.41-15.35,16.21v47.2h-44.01v-193.81c0-9.7,7.87-17.57,17.57-17.57h26.44v112.64l46.31-50.73c3.33-3.65,8.04-5.73,12.99-5.73h44.94l-59.07,61.1,61.1,94.11h-50.38Z" style="fill: #fff;"/>
      <path d="M768.86,164.68v-21.51c0-9.71,7.87-17.58,17.58-17.58h28.75v30.3c0,4.86-3.94,8.79-8.79,8.79h-37.54ZM770.02,336.97v-137.63c0-9.7,7.87-17.57,17.57-17.57h26.44v155.2h-44.01Z" style="fill: #fff;"/>
      <path d="M1008.6,305.7c-13.18,25.02-43.04,31.08-70.39,31.27h-96.26v-195.65c0-9.71,7.87-17.58,17.58-17.58h76.36c36.13-.26,66.45,16.02,66.77,52.41,1.14,20.32-8.47,38.86-26.47,47.82,25.24,9.32,38.18,25.21,37.76,53.32v.58c0,9.27-1.78,20.89-5.35,27.84ZM958.64,187.19c.12-17.52-11.37-24.84-29.25-24.36h-26.43c-9.71,0-17.58,7.87-17.58,17.58v28.79h41.12c9.85,0,17.66-1.69,23.45-5.07,5.79-3.38,8.69-8.83,8.69-16.36v-.58ZM969.93,271.78c-.25-19.16-12.5-25.92-33.01-25.52h-33.96c-9.71,0-17.58,11.38-17.58,21.09v30.53h52.99c9.84,0,17.56-1.78,23.16-5.36,5.6-3.57,8.4-12.64,8.4-20.17v-.58Z" style="fill: #fff;"/>
      <path d="M1193.63,291.07c-4.25,9.75-10.13,18.29-17.66,25.63-7.53,7.34-16.41,13.13-26.64,17.37-10.23,4.24-21.43,6.37-33.59,6.37s-23.07-2.08-33.3-6.23c-10.23-4.15-19.07-9.84-26.49-17.08-7.43-7.24-13.27-15.73-17.52-25.48-4.25-9.75-6.37-20.22-6.37-31.42v-.58c0-11.19,2.12-21.67,6.37-31.42,4.24-9.74,10.13-18.29,17.66-25.62,7.53-7.34,16.41-13.13,26.64-17.37,10.23-4.24,21.43-6.37,33.59-6.37s23.07,2.08,33.3,6.22c10.23,4.15,19.06,9.85,26.49,17.08,7.43,7.24,13.27,15.73,17.52,25.48,4.24,9.75,6.37,20.22,6.37,31.42v.58c0,11.2-2.13,21.67-6.37,31.42ZM1156.57,259.66c0-5.79-.97-11.24-2.9-16.36-1.93-5.11-4.73-9.65-8.4-13.61-3.67-3.95-8.01-7.09-13.03-9.41-5.02-2.32-10.52-3.47-16.5-3.47-6.37,0-12.02,1.11-16.94,3.33-4.92,2.22-9.12,5.26-12.6,9.12-3.48,3.86-6.13,8.35-7.96,13.46-1.84,5.12-2.75,10.57-2.75,16.36v.58c0,5.79.96,11.25,2.9,16.36,1.93,5.12,4.73,9.65,8.4,13.61,3.66,3.96,7.96,7.09,12.89,9.41,4.92,2.32,10.47,3.47,16.65,3.47s12.02-1.11,16.94-3.33c4.92-2.22,9.12-5.26,12.6-9.12,3.47-3.86,6.13-8.35,7.96-13.47,1.83-5.11,2.75-10.57,2.75-16.36v-.58Z" style="fill: #fff;"/>
    </g>
    <g>
      <path d="M458.89,182.54C436.2,78.17,343.28,0,232.1,0,103.92,0,0,103.9,0,232.09s103.92,232.09,232.1,232.09c111.16,0,204.08-78.17,226.78-182.54,3.48-15.96,5.31-32.55,5.31-49.54s-1.83-33.58-5.31-49.54ZM362.52,362.5c-34.83,34.83-81.15,54.02-130.41,54.02s-95.59-19.19-130.43-54.02c-34.83-34.83-54.02-81.15-54.02-130.41s19.19-95.58,54.02-130.41c34.83-34.85,81.15-54.02,130.43-54.02s95.58,19.17,130.41,54.02c29.07,29.07,47.24,66.13,52.45,106.24,1.05,7.94,1.57,16.03,1.57,24.18s-.52,16.22-1.57,24.18c-5.21,40.11-23.38,77.17-52.45,106.24Z" style="fill: #ffb400;"/>
      <path d="M492.21,177.08v110.03c0,6.12-6.62,9.94-11.92,6.88l-21.4-12.35-43.92-25.37c1.05-7.96,1.57-16.03,1.57-24.18s-.52-16.23-1.57-24.18l43.92-25.37,21.4-12.35c5.3-3.06,11.92.77,11.92,6.88Z" style="fill: #fff;"/>
      <path d="M371.31,250.82c-4.91-2.84-10.97-2.84-15.88,0l-46.86,27.06c-4.91,2.84-7.94,8.08-7.94,13.76s3.03,10.92,7.94,13.76l6.66,3.85c-20.97,20.06-51.14,32.22-83.5,32.22-46.45,0-88.78-25.33-105.32-63.04-3.52-8.03-12.89-11.69-20.93-8.17-8.03,3.52-11.69,12.89-8.17,20.93,21.86,49.84,74.62,82.05,134.41,82.05,43.92,0,84.83-18.16,111.82-47.64l11.88,6.86c2.46,1.42,5.2,2.13,7.94,2.13s5.49-.71,7.94-2.13c4.91-2.84,7.94-8.08,7.94-13.76v-54.11c0-5.68-3.03-10.92-7.94-13.76Z" style="fill: #ffb400;"/>
    </g>
  </g>
</svg>